<svg xmlns="http://www.w3.org/2000/svg" viewBox="0 0 64 64" width="64" height="64" role="img" aria-label="Powersoft Property">
  <rect width="64" height="64" rx="14" fill="#1F6FEB"/>
  <rect x="14" y="18" width="18" height="32" rx="2" fill="#FFFFFF"/>
  <rect x="34" y="28" width="16" height="22" rx="2" fill="#FFFFFF" opacity="0.82"/>
  <g fill="#1F6FEB">
    <rect x="18" y="23" width="4" height="4" rx="1"/><rect x="24" y="23" width="4" height="4" rx="1"/>
    <rect x="18" y="31" width="4" height="4" rx="1"/><rect x="24" y="31" width="4" height="4" rx="1"/>
    <rect x="18" y="39" width="4" height="4" rx="1"/><rect x="24" y="39" width="4" height="4" rx="1"/>
  </g>
  <g fill="#1F6FEB" opacity="0.9">
    <rect x="38" y="33" width="4" height="4" rx="1"/><rect x="44" y="33" width="3" height="4" rx="1"/>
    <rect x="38" y="41" width="4" height="4" rx="1"/><rect x="44" y="41" width="3" height="4" rx="1"/>
  </g>
  <rect x="10" y="50" width="44" height="3" rx="1.5" fill="#FFFFFF"/>
</svg>
